<?xml version="1.0" encoding="UTF-8" standalone="no"?>
<!-- Created with Inkscape (http://www.inkscape.org/) -->

<svg
   xmlns:dc="http://purl.org/dc/elements/1.1/"
   xmlns:cc="http://creativecommons.org/ns#"
   xmlns:rdf="http://www.w3.org/1999/02/22-rdf-syntax-ns#"
   xmlns:svg="http://www.w3.org/2000/svg"
   xmlns="http://www.w3.org/2000/svg"
   xmlns:sodipodi="http://sodipodi.sourceforge.net/DTD/sodipodi-0.dtd"
   xmlns:inkscape="http://www.inkscape.org/namespaces/inkscape"
   width="500"
   height="500"
   viewBox="0 0 132.29166 132.29167"
   version="1.1"
   id="svg8"
   sodipodi:docname="logo-new.svg"
   inkscape:version="0.92.2 (5c3e80d, 2017-08-06)"
   inkscape:export-filename="/Users/lukedavies/Documents/Uni/Y2/SEPR/logo.svg.png"
   inkscape:export-xdpi="96"
   inkscape:export-ydpi="96">
  <defs
     id="defs2" />
  <sodipodi:namedview
     id="base"
     pagecolor="#ffffff"
     bordercolor="#666666"
     borderopacity="1.0"
     inkscape:pageopacity="0.0"
     inkscape:pageshadow="2"
     inkscape:zoom="1.2"
     inkscape:cx="207.14909"
     inkscape:cy="232.78621"
     inkscape:document-units="px"
     inkscape:current-layer="layer2"
     showgrid="true"
     units="px"
     inkscape:window-width="1563"
     inkscape:window-height="897"
     inkscape:window-x="2112"
     inkscape:window-y="132"
     inkscape:window-maximized="0"
     showguides="false"
     inkscape:lockguides="false"
     inkscape:measure-start="250,500"
     inkscape:measure-end="500,500"
     inkscape:snap-grids="false"
     inkscape:snap-to-guides="true">
    <inkscape:grid
       units="px"
       visible="true"
       enabled="true"
       snapvisiblegridlinesonly="true"
       type="xygrid"
       id="grid3720" />
  </sodipodi:namedview>
  <metadata
     id="metadata5">
    <rdf:RDF>
      <cc:Work
         rdf:about="">
        <dc:format>image/svg+xml</dc:format>
        <dc:type
           rdf:resource="http://purl.org/dc/dcmitype/StillImage" />
        <dc:title></dc:title>
      </cc:Work>
    </rdf:RDF>
  </metadata>
  <g
     inkscape:label="Layer 1"
     inkscape:groupmode="layer"
     id="layer1"
     transform="translate(0,-164.70832)">
    <path
       style="opacity:1;fill:#b46f51;fill-opacity:1;stroke:black;stroke-width:1;stroke-miterlimit:4;stroke-dasharray:none;stroke-opacity:1"
       d="m 309.81395,484.63607 c -0.78004,-0.43654 -23.41648,-23.19138 -50.30318,-50.56632 -26.8867,-27.37494 -52.57706,-53.25793 -57.08969,-57.51775 l -8.20477,-7.74513 -42.32528,7.17925 c -23.2789,3.94858 -59.539218,10.15745 -80.578485,13.79746 -21.039267,3.64003 -38.414892,6.45655 -38.612499,6.25894 -0.197608,-0.1976 11.250773,-22.42116 25.440847,-49.38567 40.037305,-76.0804 50.174867,-95.66268 50.174867,-96.92063 0,-0.63995 -5.19902,-11.12555 -11.553379,-23.30132 C 90.408023,214.25912 73.495765,181.86563 59.179585,154.44937 44.863404,127.0331 33.381616,104.37016 33.6645,104.08727 c 0.562407,-0.5624 31.168987,4.4304 108.99842,17.78075 27.82845,4.7735 51.1221,8.6791 51.76367,8.6791 0.64157,0 16.46826,-15.65625 35.17042,-34.791663 43.51821,-44.526368 80.59716,-81.875 81.2838,-81.875 0.29487,0 0.76328,1.78125 1.04091,3.958333 2.59317,20.335035 23.13215,158.10472 23.6426,158.588 0.36746,0.34789 29.69303,14.95799 65.16794,32.46688 62.78031,30.98567 82.10226,40.7557 81.58546,41.25319 -0.13858,0.1334 -33.06446,16.42843 -73.16863,36.21119 -40.10417,19.78275 -73.21826,36.26358 -73.58687,36.62407 -0.36861,0.36047 -4.19785,24.80382 -8.50941,54.31855 -17.21649,117.85512 -15.66814,108.21443 -17.23886,107.3354 z"
       id="path931"
       inkscape:connector-curvature="0"
       transform="matrix(0.26458333,0,0,0.26458333,0,164.70832)" />
  </g>
  <g
     inkscape:groupmode="layer"
     id="layer2"
     inkscape:label="Text"
     style="display:inline">
    <path
        transform="rotate(10.053753)"
        d="m 108.18044,70.939112 q 0,8.018459 -4.15995,14.409111 -4.099665,6.390653 -12.057836,10.008003 -7.95817,3.61735 -18.87051,3.61735 -13.08275,0 -21.583523,-4.943712 -6.028917,-3.557061 -9.827135,-9.4654 -3.737929,-5.968628 -3.737929,-11.575521 0,-3.255615 2.2307,-5.546603 2.290988,-2.351278 5.78776,-2.351278 2.833591,0 4.762845,1.808675 1.989542,1.808675 3.376193,5.365736 1.688097,4.220242 3.61735,7.053833 1.989543,2.833591 5.546604,4.702556 3.557061,1.808675 9.344822,1.808675 7.95817,0 12.901882,-3.67764 5.004001,-3.737928 5.004001,-9.284532 0,-4.401109 -2.713012,-7.114122 -2.652724,-2.773302 -6.933255,-4.220242 -4.220242,-1.44694 -11.334364,-3.074748 -9.525689,-2.230699 -15.97663,-5.184868 -6.390652,-3.014459 -10.18887,-8.139038 -3.737929,-5.184869 -3.737929,-12.841594 0,-7.294989 3.979086,-12.962171 3.979085,-5.667182 11.515231,-8.681641 7.536146,-3.0747476 17.725016,-3.0747476 8.139038,0 14.047377,2.0498318 5.968628,1.9895428 9.887424,5.3657358 3.918792,3.315905 5.727472,6.993544 1.80867,3.67764 1.80867,7.174411 0,3.195327 -2.29098,5.787761 -2.230703,2.532145 -5.606897,2.532145 -3.074748,0 -4.702555,-1.507229 -1.567519,-1.567519 -3.436483,-5.064291 -2.411567,-5.004001 -5.78776,-7.777303 -3.376194,-2.833591 -10.852051,-2.833591 -6.933255,0 -11.213786,3.074748 -4.220242,3.014459 -4.220242,7.29499 0,2.652723 1.44694,4.581977 1.44694,1.929253 3.979086,3.315904 2.532145,1.386651 5.124579,2.17041 2.592434,0.783759 8.561062,2.290989 7.475857,1.748386 13.504774,3.858507 6.089207,2.110121 10.309449,5.124579 4.280534,3.014459 6.631804,7.656725 2.41157,4.581977 2.41157,11.274075 z"
        style="opacity:1;fill:#b1e0e6;fill-opacity:1;stroke:#000000;stroke-width:0.26458332;stroke-miterlimit:4;stroke-dasharray:none;stroke-opacity:1"
        id="path832"
        inkscape:connector-curvature="0" />
  </g>
</svg>
