<?xml version="1.0" encoding="UTF-8" standalone="no"?>
<!-- Created with Inkscape (http://www.inkscape.org/) -->

<svg
   xmlns:dc="http://purl.org/dc/elements/1.1/"
   xmlns:cc="http://creativecommons.org/ns#"
   xmlns:rdf="http://www.w3.org/1999/02/22-rdf-syntax-ns#"
   xmlns:svg="http://www.w3.org/2000/svg"
   xmlns="http://www.w3.org/2000/svg"
   xmlns:sodipodi="http://sodipodi.sourceforge.net/DTD/sodipodi-0.dtd"
   xmlns:inkscape="http://www.inkscape.org/namespaces/inkscape"
   width="500"
   height="500"
   viewBox="0 0 132.29166 132.29167"
   version="1.1"
   id="svg8"
   sodipodi:docname="logo.svg"
   inkscape:version="0.92.2 (5c3e80d, 2017-08-06)"
   inkscape:export-filename="/Users/lukedavies/Documents/Uni/Y2/SEPR/logo.svg.png"
   inkscape:export-xdpi="96"
   inkscape:export-ydpi="96">
  <defs
     id="defs2" />
  <sodipodi:namedview
     id="base"
     pagecolor="#ffffff"
     bordercolor="#666666"
     borderopacity="1.0"
     inkscape:pageopacity="0.0"
     inkscape:pageshadow="2"
     inkscape:zoom="1.2"
     inkscape:cx="242.07139"
     inkscape:cy="229.79816"
     inkscape:document-units="px"
     inkscape:current-layer="layer2"
     showgrid="true"
     units="px"
     inkscape:window-width="1340"
     inkscape:window-height="775"
     inkscape:window-x="2112"
     inkscape:window-y="154"
     inkscape:window-maximized="0"
     showguides="false"
     inkscape:lockguides="false"
     inkscape:measure-start="250,500"
     inkscape:measure-end="500,500"
     inkscape:snap-grids="false"
     inkscape:snap-to-guides="true">
    <inkscape:grid
       units="px"
       visible="true"
       enabled="true"
       snapvisiblegridlinesonly="true"
       type="xygrid"
       id="grid3720" />
  </sodipodi:namedview>
  <metadata
     id="metadata5">
    <rdf:RDF>
      <cc:Work
         rdf:about="">
        <dc:format>image/svg+xml</dc:format>
        <dc:type
           rdf:resource="http://purl.org/dc/dcmitype/StillImage" />
        <dc:title />
      </cc:Work>
    </rdf:RDF>
  </metadata>
  <g
     inkscape:label="Layer 1"
     inkscape:groupmode="layer"
     id="layer1"
     transform="translate(0,-164.70832)">
    <path
       sodipodi:type="star"
       id="path3726"
       sodipodi:sides="5"
       sodipodi:cx="61.895954"
       sodipodi:cy="230.77011"
       sodipodi:r1="66.749992"
       sodipodi:r2="33.374996"
       sodipodi:arg1="0"
       sodipodi:arg2="0.62831853"
       inkscape:flatsided="false"
       inkscape:rounded="0"
       inkscape:randomized="0"
       d="M 128.64595,230.77011 88.896893,250.38744 82.522836,294.25313 51.582513,262.51162 7.8940759,270.00477 28.520958,230.77011 7.8940759,191.53545 l 43.6884371,7.49315 30.940323,-31.7415 6.374057,43.86568 z"
       inkscape:transform-center-x="-6.3740571"
       style="stroke-width:0.27812496" />
    <path
       style="fill:#00b5e5;stroke-width:0.7;fill-opacity:1;stroke:#000000;stroke-opacity:1;stroke-miterlimit:4;stroke-dasharray:none"
       d="m 253.48517,429.00258 c -31.81747,-32.68239 -58.52308,-59.41778 -59.34579,-59.41196 -0.82272,0.006 -37.87436,6.26389 -82.33698,13.90683 -44.462614,7.64294 -80.891934,13.84145 -80.954042,13.77446 -0.06211,-0.067 17.275548,-33.1358 38.528125,-73.48627 21.252576,-40.35046 38.651527,-73.6481 38.664327,-73.99474 0.0128,-0.34665 -17.257545,-33.49807 -38.378548,-73.66983 -21.121003,-40.17176 -38.206204,-73.23519 -37.967115,-73.47428 0.239089,-0.23909 37.07177,5.85112 81.850403,13.53378 l 81.41569,13.96848 18.53255,-18.83591 c 10.19289,-10.35975 36.37702,-37.158346 58.18693,-59.552436 38.91566,-39.958018 39.66566,-40.663138 40.25905,-37.850468 0.33256,1.576334 5.79265,38.674467 12.13354,82.440294 l 11.52888,79.57424 74.53076,36.72097 c 40.99191,20.19653 74.30549,36.95822 74.03017,37.24819 -0.27532,0.28998 -33.80697,16.95729 -74.51476,37.03848 l -74.01418,36.51126 -11.77609,80.77846 c -6.47686,44.42816 -11.94414,81.54899 -12.14954,82.49073 -0.27544,1.26293 -15.55468,-13.88166 -58.22338,-57.71028 z"
       id="path3728"
       inkscape:connector-curvature="0"
       transform="matrix(0.26458333,0,0,0.26458333,0,164.70832)" />
    <flowRoot
       xml:space="preserve"
       id="flowRoot4544"
       style="fill:black;fill-opacity:1;stroke:none;font-family:sans-serif;font-style:normal;font-weight:normal;font-size:40px;line-height:1.25;letter-spacing:0px;word-spacing:0px"><flowRegion
         id="flowRegion4546"><rect
           id="rect4548"
           width="401.06006"
           height="391.34274"
           x="61.837456"
           y="55.653709" /></flowRegion><flowPara
         id="flowPara4550" /></flowRoot>  </g>
  <g
     inkscape:groupmode="layer"
     id="layer2"
     inkscape:label="Text">
    <g
       aria-label="S"
       transform="rotate(10.053753)"
       style="font-style:normal;font-variant:normal;font-weight:normal;font-stretch:normal;font-size:123.47222137px;line-height:1.25;font-family:'Arial Rounded MT Bold';-inkscape-font-specification:'Arial Rounded MT Bold, Normal';font-variant-ligatures:normal;font-variant-caps:normal;font-variant-numeric:normal;font-feature-settings:normal;text-align:start;letter-spacing:0px;word-spacing:0px;writing-mode:lr-tb;text-anchor:start;fill:#d1d000;fill-opacity:1;stroke:#000000;stroke-width:0.26458332;stroke-miterlimit:4;stroke-dasharray:none;stroke-opacity:1"
       id="text4554">
      <path
         d="m 108.18044,70.939112 q 0,8.018459 -4.15995,14.409111 -4.099665,6.390653 -12.057836,10.008003 -7.95817,3.61735 -18.87051,3.61735 -13.08275,0 -21.583523,-4.943712 -6.028917,-3.557061 -9.827135,-9.4654 -3.737929,-5.968628 -3.737929,-11.575521 0,-3.255615 2.2307,-5.546603 2.290988,-2.351278 5.78776,-2.351278 2.833591,0 4.762845,1.808675 1.989542,1.808675 3.376193,5.365736 1.688097,4.220242 3.61735,7.053833 1.989543,2.833591 5.546604,4.702556 3.557061,1.808675 9.344822,1.808675 7.95817,0 12.901882,-3.67764 5.004001,-3.737928 5.004001,-9.284532 0,-4.401109 -2.713012,-7.114122 -2.652724,-2.773302 -6.933255,-4.220242 -4.220242,-1.44694 -11.334364,-3.074748 -9.525689,-2.230699 -15.97663,-5.184868 -6.390652,-3.014459 -10.18887,-8.139038 -3.737929,-5.184869 -3.737929,-12.841594 0,-7.294989 3.979086,-12.962171 3.979085,-5.667182 11.515231,-8.681641 7.536146,-3.0747476 17.725016,-3.0747476 8.139038,0 14.047377,2.0498318 5.968628,1.9895428 9.887424,5.3657358 3.918792,3.315905 5.727472,6.993544 1.80867,3.67764 1.80867,7.174411 0,3.195327 -2.29098,5.787761 -2.230703,2.532145 -5.606897,2.532145 -3.074748,0 -4.702555,-1.507229 -1.567519,-1.567519 -3.436483,-5.064291 -2.411567,-5.004001 -5.78776,-7.777303 -3.376194,-2.833591 -10.852051,-2.833591 -6.933255,0 -11.213786,3.074748 -4.220242,3.014459 -4.220242,7.29499 0,2.652723 1.44694,4.581977 1.44694,1.929253 3.979086,3.315904 2.532145,1.386651 5.124579,2.17041 2.592434,0.783759 8.561062,2.290989 7.475857,1.748386 13.504774,3.858507 6.089207,2.110121 10.309449,5.124579 4.280534,3.014459 6.631804,7.656725 2.41157,4.581977 2.41157,11.274075 z"
         style="font-style:normal;font-variant:normal;font-weight:normal;font-stretch:normal;font-size:123.47222137px;font-family:'Arial Rounded MT Bold';-inkscape-font-specification:'Arial Rounded MT Bold, Normal';font-variant-ligatures:normal;font-variant-caps:normal;font-variant-numeric:normal;font-feature-settings:normal;text-align:start;writing-mode:lr-tb;text-anchor:start;opacity:1;fill:#d1d000;fill-opacity:1;stroke:#000000;stroke-width:0.26458332;stroke-miterlimit:4;stroke-dasharray:none;stroke-opacity:1"
         id="path832" />
    </g>
  </g>
</svg>
