<svg xmlns="http://www.w3.org/2000/svg" viewBox="0 0 132.29166 132.29167"><path d="M128.646 66.062L88.896 85.68l-6.373 43.865-30.94-31.742-43.69 7.493 20.628-39.234L7.895 26.827l43.69 7.493 30.94-31.74 6.373 43.864z"/><path d="M67.068 113.507c-8.418-8.647-15.484-15.72-15.702-15.72-.218.002-10.02 1.658-21.785 3.68-11.763 2.022-21.402 3.662-21.418 3.645-.016-.018 4.57-8.768 10.194-19.444 5.623-10.676 10.226-19.486 10.23-19.577.003-.09-4.566-8.863-10.155-19.49C12.844 35.97 8.324 27.22 8.387 27.16c.063-.065 9.81 1.547 21.656 3.58l21.54 3.695 4.905-4.983c2.697-2.74 9.625-9.832 15.395-15.757C82.18 3.123 82.377 2.935 82.534 3.68c.088.417 1.533 10.233 3.21 21.813l3.05 21.054 19.72 9.716c10.846 5.343 19.66 9.778 19.587 9.855-.07.076-8.943 4.486-19.714 9.8l-19.583 9.66-3.116 21.372c-1.713 11.755-3.16 21.577-3.214 21.826-.073.334-4.116-3.673-15.405-15.27z" fill="#00b5e5" stroke-width=".18520599999999998" stroke="#000"/><g><text style="line-height:1.25;-inkscape-font-specification:'Arial Rounded MT Bold, Normal';font-variant-ligatures:normal;font-variant-caps:normal;font-variant-numeric:normal;font-feature-settings:normal;text-align:start" x="31.372" y="97.466" transform="rotate(10.054)" font-size="123.472" font-family="Arial Rounded MT Bold" letter-spacing="0" word-spacing="0" fill="#d1d000" stroke="#000" stroke-width=".265"><tspan x="31.372" y="97.466" style="-inkscape-font-specification:'Arial Rounded MT Bold, Normal';font-variant-ligatures:normal;font-variant-caps:normal;font-variant-numeric:normal;font-feature-settings:normal;text-align:start">S</tspan></text></g></svg>