<svg xmlns="http://www.w3.org/2000/svg" viewBox="0 0 132.29166 132.29167"><path d="M81.972 128.227c-.207-.116-6.196-6.136-13.31-13.38-7.114-7.242-13.91-14.09-15.105-15.218l-2.17-2.05-11.2 1.9c-6.158 1.044-15.752 2.687-21.32 3.65-5.566.963-10.163 1.71-10.215 1.656-.052-.052 2.977-5.932 6.73-13.066C25.977 71.59 28.66 66.41 28.66 66.076c0-.17-1.377-2.944-3.058-6.165l-9.944-19.045c-3.788-7.254-6.826-13.25-6.75-13.325.148-.15 8.246 1.172 28.838 4.704 7.363 1.263 13.526 2.297 13.696 2.297.17 0 4.357-4.142 9.306-9.205C72.262 13.555 82.072 3.673 82.254 3.673c.078 0 .202.47.275 1.047.685 5.38 6.12 41.832 6.255 41.96.097.092 7.856 3.957 17.242 8.59 16.61 8.198 21.723 10.783 21.586 10.915-.036.035-8.748 4.346-19.36 9.58-10.61 5.235-19.37 9.595-19.47 9.69-.096.096-1.11 6.563-2.25 14.372-4.555 31.183-4.146 28.632-4.56 28.4z" fill="#b46f51" stroke="#000" stroke-width=".26458"/><path d="M94.135 88.735q-1.4 7.895-6.61 13.462-5.154 5.577-13.62 7.75-8.468 2.172-19.213.267-12.882-2.284-20.39-8.636-5.315-4.555-8.023-11.036-2.64-6.53-1.66-12.05.567-3.206 3.164-5.072 2.666-1.915 6.11-1.305 2.79.495 4.373 2.613 1.643 2.128 2.388 5.872.925 4.45 2.33 7.577 1.465 3.138 4.64 5.6 3.187 2.4 8.886 3.41 7.837 1.39 13.347-1.368 5.58-2.808 6.548-8.27.768-4.333-1.43-7.478-2.127-3.193-6.09-5.365-3.902-2.162-10.623-5.007-8.99-3.86-14.826-7.894-5.766-4.084-8.612-9.793-2.775-5.757-1.438-13.297 1.273-7.183 6.18-12.068 4.908-4.886 12.854-6.538 7.957-1.712 17.99.067 8.014 1.42 13.474 4.47 5.53 3 8.8 7.01 3.278 3.95 4.417 7.886 1.14 3.937.53 7.38-.558 3.146-3.266 5.3-2.64 2.102-5.963 1.513-3.027-.537-4.367-2.305-1.27-1.816-2.5-5.585-1.5-5.35-4.34-8.67-2.83-3.378-10.19-4.683-6.828-1.21-11.58 1.07-4.68 2.23-5.428 6.446-.463 2.612.624 4.764t3.34 3.96q2.25 1.807 4.666 3.03 2.415 1.226 8.03 3.752 7.055 3.026 12.623 6.157 5.626 3.14 9.256 6.846 3.688 3.716 5.193 8.697 1.574 4.933.405 11.522z" fill="#b1e0e6" stroke="#000" stroke-width=".265"/></svg>