<svg xmlns="http://www.w3.org/2000/svg" viewBox="0 0 132.29166 132.29167"><path d="M128.646 66.062L88.896 85.68l-6.373 43.865-30.94-31.742-43.69 7.493 20.628-39.234L7.895 26.827l43.69 7.493 30.94-31.74 6.373 43.864z"/><path d="M67.068 113.507c-8.418-8.647-15.484-15.72-15.702-15.72-.218.002-10.02 1.658-21.785 3.68-11.763 2.022-21.402 3.662-21.418 3.645-.016-.018 4.57-8.768 10.194-19.444 5.623-10.676 10.226-19.486 10.23-19.577.003-.09-4.566-8.863-10.155-19.49C12.844 35.97 8.324 27.22 8.387 27.16c.063-.065 9.81 1.547 21.656 3.58l21.54 3.695 4.905-4.983c2.697-2.74 9.625-9.832 15.395-15.757C82.18 3.123 82.377 2.935 82.534 3.68c.088.417 1.533 10.233 3.21 21.813l3.05 21.054 19.72 9.716c10.846 5.343 19.66 9.778 19.587 9.855-.07.076-8.943 4.486-19.714 9.8l-19.583 9.66-3.116 21.372c-1.713 11.755-3.16 21.577-3.214 21.826-.073.334-4.116-3.673-15.405-15.27z" fill="#00b5e5" stroke-width=".18520599999999998" stroke="#000"/><g><path d="M94.135 88.735q-1.4 7.895-6.61 13.462-5.154 5.577-13.62 7.75-8.468 2.172-19.213.267-12.882-2.284-20.39-8.636-5.315-4.555-8.023-11.036-2.64-6.53-1.66-12.05.567-3.206 3.164-5.072 2.666-1.915 6.11-1.305 2.79.495 4.373 2.613 1.643 2.128 2.388 5.872.925 4.45 2.33 7.577 1.465 3.138 4.64 5.6 3.187 2.4 8.886 3.41 7.837 1.39 13.347-1.368 5.58-2.808 6.548-8.27.768-4.333-1.43-7.478-2.127-3.193-6.09-5.365-3.902-2.162-10.623-5.007-8.99-3.86-14.826-7.894-5.766-4.084-8.612-9.793-2.775-5.757-1.438-13.297 1.273-7.183 6.18-12.068 4.908-4.886 12.854-6.538 7.957-1.712 17.99.067 8.014 1.42 13.474 4.47 5.53 3 8.8 7.01 3.278 3.95 4.417 7.886 1.14 3.937.53 7.38-.558 3.146-3.266 5.3-2.64 2.102-5.963 1.513-3.027-.537-4.367-2.305-1.27-1.816-2.5-5.585-1.5-5.35-4.34-8.67-2.83-3.378-10.19-4.683-6.828-1.21-11.58 1.07-4.68 2.23-5.428 6.446-.463 2.612.624 4.764t3.34 3.96q2.25 1.807 4.666 3.03 2.415 1.226 8.03 3.752 7.055 3.026 12.623 6.157 5.626 3.14 9.256 6.846 3.688 3.716 5.193 8.697 1.574 4.933.405 11.522z" fill="#d1d000" stroke="#000" stroke-width=".265"/></g></svg>